<mxfile host="Electron" modified="2024-11-18T12:00:00.000Z" agent="Mozilla/5.0" version="22.1.11" etag="jkl012" type="device">
  <diagram id="TtalKkak-Component-Diagram" name="컴포넌트 다이어그램">
    <mxGraphModel dx="1422" dy="1600" grid="1" gridSize="10" guides="1" tooltips="1" connect="1" arrows="1" fold="1" page="1" pageScale="1" pageWidth="1800" pageHeight="1600" math="0" shadow="0">
      <root>
        <mxCell id="0" />
        <mxCell id="1" parent="0" />
        
        <!-- 제목 -->
        <mxCell id="title" value="TtalKkak 백엔드 API 컴포넌트 다이어그램" style="text;html=1;strokeColor=none;fillColor=none;align=center;verticalAlign=middle;whiteSpace=wrap;rounded=0;fontSize=20;fontStyle=1" vertex="1" parent="1">
          <mxGeometry x="700" y="20" width="400" height="30" as="geometry" />
        </mxCell>
        
        <!-- 외부 입력 -->
        <mxCell id="http-client" value="🌐 HTTP 클라이언트&#xa;웹/모바일 앱" style="ellipse;whiteSpace=wrap;html=1;fillColor=#e1d5e7;strokeColor=#9673a6;fontSize=12;" vertex="1" parent="1">
          <mxGeometry x="50" y="100" width="150" height="80" as="geometry" />
        </mxCell>
        
        <mxCell id="slack-bot" value="🤖 Slack Bot&#xa;@slack/bolt" style="ellipse;whiteSpace=wrap;html=1;fillColor=#e1d5e7;strokeColor=#9673a6;fontSize=12;" vertex="1" parent="1">
          <mxGeometry x="50" y="200" width="150" height="80" as="geometry" />
        </mxCell>
        
        <!-- API 레이어 -->
        <mxCell id="api-layer-box" value="" style="rounded=1;whiteSpace=wrap;html=1;fillColor=none;strokeColor=#0277bd;strokeWidth=2;dashed=1;" vertex="1" parent="1">
          <mxGeometry x="300" y="80" width="800" height="120" as="geometry" />
        </mxCell>
        
        <mxCell id="api-layer-label" value="API 레이어" style="text;html=1;strokeColor=none;fillColor=none;align=left;verticalAlign=top;whiteSpace=wrap;rounded=0;fontSize=14;fontStyle=1;fontColor=#0277bd" vertex="1" parent="1">
          <mxGeometry x="310" y="85" width="100" height="20" as="geometry" />
        </mxCell>
        
        <mxCell id="express-server" value="🚪 Express 서버&#xa;server.ts&#xa;&#xa;• 라우팅&#xa;• 미들웨어 적용&#xa;• 에러 핸들링" style="rounded=1;whiteSpace=wrap;html=1;fillColor=#e1f5fe;strokeColor=#0277bd;fontSize=11;" vertex="1" parent="1">
          <mxGeometry x="320" y="110" width="180" height="80" as="geometry" />
        </mxCell>
        
        <mxCell id="middleware" value="🔒 미들웨어&#xa;&#xa;• 인증/인가&#xa;• 테넌트 검증&#xa;• 로깅&#xa;• CORS" style="rounded=1;whiteSpace=wrap;html=1;fillColor=#e1f5fe;strokeColor=#0277bd;fontSize=11;" vertex="1" parent="1">
          <mxGeometry x="520" y="110" width="180" height="80" as="geometry" />
        </mxCell>
        
        <mxCell id="routes" value="🛣️ 라우터&#xa;&#xa;• /auth/* (인증)&#xa;• /api/* (API)&#xa;• /slack/* (Slack 이벤트)" style="rounded=1;whiteSpace=wrap;html=1;fillColor=#e1f5fe;strokeColor=#0277bd;fontSize=11;" vertex="1" parent="1">
          <mxGeometry x="720" y="110" width="180" height="80" as="geometry" />
        </mxCell>
        
        <!-- 컨트롤러 레이어 -->
        <mxCell id="controller-layer-box" value="" style="rounded=1;whiteSpace=wrap;html=1;fillColor=none;strokeColor=#7b1fa2;strokeWidth=2;dashed=1;" vertex="1" parent="1">
          <mxGeometry x="300" y="240" width="1000" height="120" as="geometry" />
        </mxCell>
        
        <mxCell id="controller-layer-label" value="컨트롤러 레이어" style="text;html=1;strokeColor=none;fillColor=none;align=left;verticalAlign=top;whiteSpace=wrap;rounded=0;fontSize=14;fontStyle=1;fontColor=#7b1fa2" vertex="1" parent="1">
          <mxGeometry x="310" y="245" width="120" height="20" as="geometry" />
        </mxCell>
        
        <mxCell id="auth-controller" value="🔐 인증 컨트롤러&#xa;&#xa;• OAuth 콜백&#xa;• 토큰 갱신&#xa;• 세션 관리" style="rounded=1;whiteSpace=wrap;html=1;fillColor=#f3e5f5;strokeColor=#7b1fa2;fontSize=11;" vertex="1" parent="1">
          <mxGeometry x="320" y="270" width="180" height="80" as="geometry" />
        </mxCell>
        
        <mxCell id="project-controller" value="📋 프로젝트 컨트롤러&#xa;&#xa;• 프로젝트 생성&#xa;• 상태 관리&#xa;• 메타데이터 처리" style="rounded=1;whiteSpace=wrap;html=1;fillColor=#f3e5f5;strokeColor=#7b1fa2;fontSize=11;" vertex="1" parent="1">
          <mxGeometry x="520" y="270" width="180" height="80" as="geometry" />
        </mxCell>
        
        <mxCell id="task-controller" value="✅ 업무 컨트롤러&#xa;&#xa;• 업무 생성&#xa;• 배정 관리&#xa;• 상태 변경" style="rounded=1;whiteSpace=wrap;html=1;fillColor=#f3e5f5;strokeColor=#7b1fa2;fontSize=11;" vertex="1" parent="1">
          <mxGeometry x="720" y="270" width="180" height="80" as="geometry" />
        </mxCell>
        
        <mxCell id="slack-controller" value="📱 Slack 컨트롤러&#xa;slack-handler.js&#xa;&#xa;• 명령어 처리&#xa;• 이벤트 리스너&#xa;• 모달 처리" style="rounded=1;whiteSpace=wrap;html=1;fillColor=#f3e5f5;strokeColor=#7b1fa2;fontSize=11;" vertex="1" parent="1">
          <mxGeometry x="920" y="270" width="180" height="80" as="geometry" />
        </mxCell>
        
        <!-- 서비스 레이어 -->
        <mxCell id="service-layer-box" value="" style="rounded=1;whiteSpace=wrap;html=1;fillColor=none;strokeColor=#f57c00;strokeWidth=2;dashed=1;" vertex="1" parent="1">
          <mxGeometry x="300" y="400" width="1000" height="120" as="geometry" />
        </mxCell>
        
        <mxCell id="service-layer-label" value="서비스 레이어" style="text;html=1;strokeColor=none;fillColor=none;align=left;verticalAlign=top;whiteSpace=wrap;rounded=0;fontSize=14;fontStyle=1;fontColor=#f57c00" vertex="1" parent="1">
          <mxGeometry x="310" y="405" width="100" height="20" as="geometry" />
        </mxCell>
        
        <mxCell id="ai-service" value="🧠 AI 서비스&#xa;ai-service.ts&#xa;&#xa;• 2단계 파이프라인&#xa;• 에러 처리&#xa;• 더미 데이터" style="rounded=1;whiteSpace=wrap;html=1;fillColor=#fff3e0;strokeColor=#f57c00;fontSize=11;" vertex="1" parent="1">
          <mxGeometry x="320" y="430" width="180" height="80" as="geometry" />
        </mxCell>
        
        <mxCell id="notion-service" value="📝 Notion 서비스&#xa;notion-service.ts&#xa;&#xa;• 페이지 생성&#xa;• 블록 구조화&#xa;• OAuth 관리" style="rounded=1;whiteSpace=wrap;html=1;fillColor=#fff3e0;strokeColor=#f57c00;fontSize=11;" vertex="1" parent="1">
          <mxGeometry x="520" y="430" width="180" height="80" as="geometry" />
        </mxCell>
        
        <mxCell id="jira-service" value="🎫 JIRA 서비스&#xa;jira-service.ts&#xa;&#xa;• 이슈 생성&#xa;• Epic/Task 매핑&#xa;• 토큰 관리" style="rounded=1;whiteSpace=wrap;html=1;fillColor=#fff3e0;strokeColor=#f57c00;fontSize=11;" vertex="1" parent="1">
          <mxGeometry x="720" y="430" width="180" height="80" as="geometry" />
        </mxCell>
        
        <mxCell id="task-assigner" value="🎯 업무 배정 서비스&#xa;smart-task-assigner.ts&#xa;&#xa;• 스코어링 알고리즘&#xa;• 최적화 엔진" style="rounded=1;whiteSpace=wrap;html=1;fillColor=#fff3e0;strokeColor=#f57c00;fontSize=11;" vertex="1" parent="1">
          <mxGeometry x="920" y="430" width="180" height="80" as="geometry" />
        </mxCell>
        
        <!-- 유틸리티 레이어 -->
        <mxCell id="utility-layer-box" value="" style="rounded=1;whiteSpace=wrap;html=1;fillColor=none;strokeColor=#388e3c;strokeWidth=2;dashed=1;" vertex="1" parent="1">
          <mxGeometry x="300" y="560" width="1000" height="120" as="geometry" />
        </mxCell>
        
        <mxCell id="utility-layer-label" value="유틸리티 레이어" style="text;html=1;strokeColor=none;fillColor=none;align=left;verticalAlign=top;whiteSpace=wrap;rounded=0;fontSize=14;fontStyle=1;fontColor=#388e3c" vertex="1" parent="1">
          <mxGeometry x="310" y="565" width="120" height="20" as="geometry" />
        </mxCell>
        
        <mxCell id="crypto-util" value="🔒 암호화 유틸&#xa;&#xa;• 토큰 암호화&#xa;• 복호화&#xa;• 해시 함수" style="rounded=1;whiteSpace=wrap;html=1;fillColor=#e8f5e8;strokeColor=#388e3c;fontSize=11;" vertex="1" parent="1">
          <mxGeometry x="320" y="590" width="180" height="80" as="geometry" />
        </mxCell>
        
        <mxCell id="file-util" value="📁 파일 유틸&#xa;&#xa;• 업로드 처리&#xa;• 타입 검증&#xa;• 크기 제한" style="rounded=1;whiteSpace=wrap;html=1;fillColor=#e8f5e8;strokeColor=#388e3c;fontSize=11;" vertex="1" parent="1">
          <mxGeometry x="520" y="590" width="180" height="80" as="geometry" />
        </mxCell>
        
        <mxCell id="validation" value="✅ 검증 유틸&#xa;&#xa;• 입력 검증&#xa;• 스키마 검증&#xa;• 타입 체크" style="rounded=1;whiteSpace=wrap;html=1;fillColor=#e8f5e8;strokeColor=#388e3c;fontSize=11;" vertex="1" parent="1">
          <mxGeometry x="720" y="590" width="180" height="80" as="geometry" />
        </mxCell>
        
        <mxCell id="logger" value="📊 로깅 유틸&#xa;Winston&#xa;&#xa;• 구조화된 로그&#xa;• 에러 추적" style="rounded=1;whiteSpace=wrap;html=1;fillColor=#e8f5e8;strokeColor=#388e3c;fontSize=11;" vertex="1" parent="1">
          <mxGeometry x="920" y="590" width="180" height="80" as="geometry" />
        </mxCell>
        
        <!-- 데이터 접근 레이어 -->
        <mxCell id="data-layer-box" value="" style="rounded=1;whiteSpace=wrap;html=1;fillColor=none;strokeColor=#558b2f;strokeWidth=2;dashed=1;" vertex="1" parent="1">
          <mxGeometry x="300" y="720" width="700" height="120" as="geometry" />
        </mxCell>
        
        <mxCell id="data-layer-label" value="데이터 접근 레이어" style="text;html=1;strokeColor=none;fillColor=none;align=left;verticalAlign=top;whiteSpace=wrap;rounded=0;fontSize=14;fontStyle=1;fontColor=#558b2f" vertex="1" parent="1">
          <mxGeometry x="310" y="725" width="140" height="20" as="geometry" />
        </mxCell>
        
        <mxCell id="prisma-orm" value="🗃️ Prisma ORM&#xa;schema.prisma&#xa;&#xa;• 데이터베이스 접근&#xa;• 타입 안전성&#xa;• 마이그레이션" style="rounded=1;whiteSpace=wrap;html=1;fillColor=#f1f8e9;strokeColor=#558b2f;fontSize=11;" vertex="1" parent="1">
          <mxGeometry x="320" y="750" width="180" height="80" as="geometry" />
        </mxCell>
        
        <mxCell id="cache-manager" value="⚡ 캐시 관리&#xa;&#xa;• Redis 연결&#xa;• 세션 관리&#xa;• 임시 데이터" style="rounded=1;whiteSpace=wrap;html=1;fillColor=#f1f8e9;strokeColor=#558b2f;fontSize=11;" vertex="1" parent="1">
          <mxGeometry x="520" y="750" width="180" height="80" as="geometry" />
        </mxCell>
        
        <mxCell id="repository" value="📚 리포지토리&#xa;&#xa;• 데이터 추상화&#xa;• 쿼리 최적화&#xa;• 트랜잭션 관리" style="rounded=1;whiteSpace=wrap;html=1;fillColor=#f1f8e9;strokeColor=#558b2f;fontSize=11;" vertex="1" parent="1">
          <mxGeometry x="720" y="750" width="180" height="80" as="geometry" />
        </mxCell>
        
        <!-- 외부 연동 레이어 -->
        <mxCell id="external-layer-box" value="" style="rounded=1;whiteSpace=wrap;html=1;fillColor=none;strokeColor=#d32f2f;strokeWidth=2;dashed=1;" vertex="1" parent="1">
          <mxGeometry x="1050" y="720" width="700" height="120" as="geometry" />
        </mxCell>
        
        <mxCell id="external-layer-label" value="외부 연동 레이어" style="text;html=1;strokeColor=none;fillColor=none;align=left;verticalAlign=top;whiteSpace=wrap;rounded=0;fontSize=14;fontStyle=1;fontColor=#d32f2f" vertex="1" parent="1">
          <mxGeometry x="1060" y="725" width="130" height="20" as="geometry" />
        </mxCell>
        
        <mxCell id="http-client-util" value="🌐 HTTP 클라이언트&#xa;&#xa;• API 호출&#xa;• 재시도 로직&#xa;• 타임아웃 처리" style="rounded=1;whiteSpace=wrap;html=1;fillColor=#ffebee;strokeColor=#d32f2f;fontSize=11;" vertex="1" parent="1">
          <mxGeometry x="1070" y="750" width="180" height="80" as="geometry" />
        </mxCell>
        
        <mxCell id="webhook-handler" value="📡 웹훅 핸들러&#xa;&#xa;• Slack 이벤트&#xa;• 서명 검증&#xa;• 응답 처리" style="rounded=1;whiteSpace=wrap;html=1;fillColor=#ffebee;strokeColor=#d32f2f;fontSize=11;" vertex="1" parent="1">
          <mxGeometry x="1270" y="750" width="180" height="80" as="geometry" />
        </mxCell>
        
        <mxCell id="oauth-manager" value="🔑 OAuth 관리&#xa;&#xa;• 인증 플로우&#xa;• 토큰 갱신&#xa;• 스코프 관리" style="rounded=1;whiteSpace=wrap;html=1;fillColor=#ffebee;strokeColor=#d32f2f;fontSize=11;" vertex="1" parent="1">
          <mxGeometry x="1470" y="750" width="180" height="80" as="geometry" />
        </mxCell>
        
        <!-- 모니터링 레이어 -->
        <mxCell id="monitoring-layer-box" value="" style="rounded=1;whiteSpace=wrap;html=1;fillColor=none;strokeColor=#00796b;strokeWidth=2;dashed=1;" vertex="1" parent="1">
          <mxGeometry x="300" y="880" width="700" height="120" as="geometry" />
        </mxCell>
        
        <mxCell id="monitoring-layer-label" value="모니터링 레이어" style="text;html=1;strokeColor=none;fillColor=none;align=left;verticalAlign=top;whiteSpace=wrap;rounded=0;fontSize=14;fontStyle=1;fontColor=#00796b" vertex="1" parent="1">
          <mxGeometry x="310" y="885" width="120" height="20" as="geometry" />
        </mxCell>
        
        <mxCell id="health-check" value="💓 헬스 체크&#xa;&#xa;• 서비스 상태&#xa;• 외부 연동 확인&#xa;• 성능 메트릭" style="rounded=1;whiteSpace=wrap;html=1;fillColor=#e0f2f1;strokeColor=#00796b;fontSize=11;" vertex="1" parent="1">
          <mxGeometry x="320" y="910" width="180" height="80" as="geometry" />
        </mxCell>
        
        <mxCell id="error-handler" value="🚨 에러 핸들러&#xa;&#xa;• 전역 에러 처리&#xa;• 에러 분류&#xa;• 알림 발송" style="rounded=1;whiteSpace=wrap;html=1;fillColor=#e0f2f1;strokeColor=#00796b;fontSize=11;" vertex="1" parent="1">
          <mxGeometry x="520" y="910" width="180" height="80" as="geometry" />
        </mxCell>
        
        <mxCell id="metrics" value="📊 메트릭 수집&#xa;&#xa;• 성능 지표&#xa;• 사용량 통계&#xa;• 대시보드" style="rounded=1;whiteSpace=wrap;html=1;fillColor=#e0f2f1;strokeColor=#00796b;fontSize=11;" vertex="1" parent="1">
          <mxGeometry x="720" y="910" width="180" height="80" as="geometry" />
        </mxCell>
        
        <!-- 외부 시스템 -->
        <mxCell id="postgresql-db" value="🗃️ PostgreSQL" style="shape=cylinder3;whiteSpace=wrap;html=1;boundedLbl=1;backgroundOutline=1;size=15;fillColor=#d5e8d4;strokeColor=#82b366;fontSize=12;" vertex="1" parent="1">
          <mxGeometry x="50" y="720" width="120" height="80" as="geometry" />
        </mxCell>
        
        <mxCell id="redis-db" value="⚡ Redis" style="shape=cylinder3;whiteSpace=wrap;html=1;boundedLbl=1;backgroundOutline=1;size=15;fillColor=#ffebee;strokeColor=#d32f2f;fontSize=12;" vertex="1" parent="1">
          <mxGeometry x="50" y="820" width="120" height="80" as="geometry" />
        </mxCell>
        
        <mxCell id="ai-server-ext" value="🤖 AI 서버" style="ellipse;whiteSpace=wrap;html=1;fillColor=#ffcccc;strokeColor=#d79b00;fontSize=12;" vertex="1" parent="1">
          <mxGeometry x="1450" y="100" width="120" height="80" as="geometry" />
        </mxCell>
        
        <mxCell id="external-apis" value="🌐 외부 API&#xa;Slack, Notion, JIRA" style="ellipse;whiteSpace=wrap;html=1;fillColor=#fafafa;strokeColor=#616161;fontSize=12;" vertex="1" parent="1">
          <mxGeometry x="1450" y="200" width="150" height="80" as="geometry" />
        </mxCell>
        
        <!-- 연결 관계 -->
        <!-- 외부 입력 → API 레이어 -->
        <mxCell id="conn-1" value="" style="endArrow=classic;html=1;rounded=0;strokeWidth=2;strokeColor=#0066cc;" edge="1" parent="1" source="http-client" target="express-server">
          <mxGeometry width="50" height="50" relative="1" as="geometry">
            <mxPoint x="210" y="140" as="sourcePoint" />
            <mxPoint x="320" y="150" as="targetPoint" />
          </mxGeometry>
        </mxCell>
        
        <mxCell id="conn-2" value="" style="endArrow=classic;html=1;rounded=0;strokeWidth=2;strokeColor=#0066cc;" edge="1" parent="1" source="slack-bot" target="webhook-handler">
          <mxGeometry width="50" height="50" relative="1" as="geometry">
            <mxPoint x="210" y="240" as="sourcePoint" />
            <mxPoint x="1270" y="790" as="targetPoint" />
          </mxGeometry>
        </mxCell>
        
        <!-- API 레이어 내부 연결 -->
        <mxCell id="conn-3" value="" style="endArrow=classic;html=1;rounded=0;strokeWidth=1;strokeColor=#0277bd;" edge="1" parent="1" source="express-server" target="middleware">
          <mxGeometry width="50" height="50" relative="1" as="geometry">
            <mxPoint x="510" y="150" as="sourcePoint" />
            <mxPoint x="520" y="150" as="targetPoint" />
          </mxGeometry>
        </mxCell>
        
        <mxCell id="conn-4" value="" style="endArrow=classic;html=1;rounded=0;strokeWidth=1;strokeColor=#0277bd;" edge="1" parent="1" source="middleware" target="routes">
          <mxGeometry width="50" height="50" relative="1" as="geometry">
            <mxPoint x="710" y="150" as="sourcePoint" />
            <mxPoint x="720" y="150" as="targetPoint" />
          </mxGeometry>
        </mxCell>
        
        <!-- API 레이어 → 컨트롤러 레이어 -->
        <mxCell id="conn-5" value="" style="endArrow=classic;html=1;rounded=0;strokeWidth=2;strokeColor=#7b1fa2;" edge="1" parent="1" source="routes" target="auth-controller">
          <mxGeometry width="50" height="50" relative="1" as="geometry">
            <mxPoint x="720" y="200" as="sourcePoint" />
            <mxPoint x="410" y="270" as="targetPoint" />
          </mxGeometry>
        </mxCell>
        
        <mxCell id="conn-6" value="" style="endArrow=classic;html=1;rounded=0;strokeWidth=2;strokeColor=#7b1fa2;" edge="1" parent="1" source="routes" target="project-controller">
          <mxGeometry width="50" height="50" relative="1" as="geometry">
            <mxPoint x="750" y="200" as="sourcePoint" />
            <mxPoint x="610" y="270" as="targetPoint" />
          </mxGeometry>
        </mxCell>
        
        <mxCell id="conn-7" value="" style="endArrow=classic;html=1;rounded=0;strokeWidth=2;strokeColor=#7b1fa2;" edge="1" parent="1" source="routes" target="task-controller">
          <mxGeometry width="50" height="50" relative="1" as="geometry">
            <mxPoint x="780" y="200" as="sourcePoint" />
            <mxPoint x="810" y="270" as="targetPoint" />
          </mxGeometry>
        </mxCell>
        
        <mxCell id="conn-8" value="" style="endArrow=classic;html=1;rounded=0;strokeWidth=2;strokeColor=#7b1fa2;" edge="1" parent="1" source="webhook-handler" target="slack-controller">
          <mxGeometry width="50" height="50" relative="1" as="geometry">
            <mxPoint x="1360" y="750" as="sourcePoint" />
            <mxPoint x="1010" y="350" as="targetPoint" />
          </mxGeometry>
        </mxCell>
        
        <!-- 컨트롤러 → 서비스 -->
        <mxCell id="conn-9" value="" style="endArrow=classic;html=1;rounded=0;strokeWidth=2;strokeColor=#f57c00;" edge="1" parent="1" source="auth-controller" target="oauth-manager">
          <mxGeometry width="50" height="50" relative="1" as="geometry">
            <mxPoint x="410" y="360" as="sourcePoint" />
            <mxPoint x="1470" y="790" as="targetPoint" />
          </mxGeometry>
        </mxCell>
        
        <mxCell id="conn-10" value="" style="endArrow=classic;html=1;rounded=0;strokeWidth=2;strokeColor=#f57c00;" edge="1" parent="1" source="project-controller" target="ai-service">
          <mxGeometry width="50" height="50" relative="1" as="geometry">
            <mxPoint x="610" y="360" as="sourcePoint" />
            <mxPoint x="410" y="430" as="targetPoint" />
          </mxGeometry>
        </mxCell>
        
        <mxCell id="conn-11" value="" style="endArrow=classic;html=1;rounded=0;strokeWidth=2;strokeColor=#f57c00;" edge="1" parent="1" source="project-controller" target="notion-service">
          <mxGeometry width="50" height="50" relative="1" as="geometry">
            <mxPoint x="610" y="360" as="sourcePoint" />
            <mxPoint x="610" y="430" as="targetPoint" />
          </mxGeometry>
        </mxCell>
        
        <mxCell id="conn-12" value="" style="endArrow=classic;html=1;rounded=0;strokeWidth=2;strokeColor=#f57c00;" edge="1" parent="1" source="task-controller" target="jira-service">
          <mxGeometry width="50" height="50" relative="1" as="geometry">
            <mxPoint x="810" y="360" as="sourcePoint" />
            <mxPoint x="810" y="430" as="targetPoint" />
          </mxGeometry>
        </mxCell>
        
        <mxCell id="conn-13" value="" style="endArrow=classic;html=1;rounded=0;strokeWidth=2;strokeColor=#f57c00;" edge="1" parent="1" source="task-controller" target="task-assigner">
          <mxGeometry width="50" height="50" relative="1" as="geometry">
            <mxPoint x="900" y="360" as="sourcePoint" />
            <mxPoint x="1010" y="430" as="targetPoint" />
          </mxGeometry>
        </mxCell>
        
        <mxCell id="conn-14" value="" style="endArrow=classic;html=1;rounded=0;strokeWidth=2;strokeColor=#f57c00;" edge="1" parent="1" source="slack-controller" target="ai-service">
          <mxGeometry width="50" height="50" relative="1" as="geometry">
            <mxPoint x="920" y="360" as="sourcePoint" />
            <mxPoint x="500" y="430" as="targetPoint" />
          </mxGeometry>
        </mxCell>
        
        <mxCell id="conn-15" value="" style="endArrow=classic;html=1;rounded=0;strokeWidth=2;strokeColor=#f57c00;" edge="1" parent="1" source="slack-controller" target="notion-service">
          <mxGeometry width="50" height="50" relative="1" as="geometry">
            <mxPoint x="1000" y="360" as="sourcePoint" />
            <mxPoint x="700" y="430" as="targetPoint" />
          </mxGeometry>
        </mxCell>
        
        <mxCell id="conn-16" value="" style="endArrow=classic;html=1;rounded=0;strokeWidth=2;strokeColor=#f57c00;" edge="1" parent="1" source="slack-controller" target="jira-service">
          <mxGeometry width="50" height="50" relative="1" as="geometry">
            <mxPoint x="1010" y="350" as="sourcePoint" />
            <mxPoint x="900" y="430" as="targetPoint" />
          </mxGeometry>
        </mxCell>
        
        <!-- 서비스 → 유틸리티 -->
        <mxCell id="conn-17" value="" style="endArrow=classic;html=1;rounded=0;strokeWidth=1;strokeColor=#388e3c;" edge="1" parent="1" source="auth-controller" target="crypto-util">
          <mxGeometry width="50" height="50" relative="1" as="geometry">
            <mxPoint x="410" y="360" as="sourcePoint" />
            <mxPoint x="410" y="590" as="targetPoint" />
          </mxGeometry>
        </mxCell>
        
        <mxCell id="conn-18" value="" style="endArrow=classic;html=1;rounded=0;strokeWidth=1;strokeColor=#388e3c;" edge="1" parent="1" source="project-controller" target="file-util">
          <mxGeometry width="50" height="50" relative="1" as="geometry">
            <mxPoint x="610" y="360" as="sourcePoint" />
            <mxPoint x="610" y="590" as="targetPoint" />
          </mxGeometry>
        </mxCell>
        
        <mxCell id="conn-19" value="" style="endArrow=classic;html=1;rounded=0;strokeWidth=1;strokeColor=#388e3c;" edge="1" parent="1" source="task-controller" target="validation">
          <mxGeometry width="50" height="50" relative="1" as="geometry">
            <mxPoint x="810" y="360" as="sourcePoint" />
            <mxPoint x="810" y="590" as="targetPoint" />
          </mxGeometry>
        </mxCell>
        
        <!-- 서비스 → 데이터 접근 -->
        <mxCell id="conn-20" value="" style="endArrow=classic;html=1;rounded=0;strokeWidth=2;strokeColor=#558b2f;" edge="1" parent="1" source="ai-service" target="repository">
          <mxGeometry width="50" height="50" relative="1" as="geometry">
            <mxPoint x="410" y="520" as="sourcePoint" />
            <mxPoint x="810" y="750" as="targetPoint" />
          </mxGeometry>
        </mxCell>
        
        <mxCell id="conn-21" value="" style="endArrow=classic;html=1;rounded=0;strokeWidth=2;strokeColor=#558b2f;" edge="1" parent="1" source="notion-service" target="repository">
          <mxGeometry width="50" height="50" relative="1" as="geometry">
            <mxPoint x="610" y="520" as="sourcePoint" />
            <mxPoint x="810" y="750" as="targetPoint" />
          </mxGeometry>
        </mxCell>
        
        <mxCell id="conn-22" value="" style="endArrow=classic;html=1;rounded=0;strokeWidth=2;strokeColor=#558b2f;" edge="1" parent="1" source="jira-service" target="repository">
          <mxGeometry width="50" height="50" relative="1" as="geometry">
            <mxPoint x="810" y="520" as="sourcePoint" />
            <mxPoint x="810" y="750" as="targetPoint" />
          </mxGeometry>
        </mxCell>
        
        <mxCell id="conn-23" value="" style="endArrow=classic;html=1;rounded=0;strokeWidth=2;strokeColor=#558b2f;" edge="1" parent="1" source="task-assigner" target="repository">
          <mxGeometry width="50" height="50" relative="1" as="geometry">
            <mxPoint x="1010" y="520" as="sourcePoint" />
            <mxPoint x="900" y="750" as="targetPoint" />
          </mxGeometry>
        </mxCell>
        
        <!-- 데이터 접근 → 데이터베이스 -->
        <mxCell id="conn-24" value="" style="endArrow=classic;html=1;rounded=0;strokeWidth=2;strokeColor=#82b366;" edge="1" parent="1" source="repository" target="prisma-orm">
          <mxGeometry width="50" height="50" relative="1" as="geometry">
            <mxPoint x="720" y="790" as="sourcePoint" />
            <mxPoint x="510" y="790" as="targetPoint" />
          </mxGeometry>
        </mxCell>
        
        <mxCell id="conn-25" value="" style="endArrow=classic;html=1;rounded=0;strokeWidth=2;strokeColor=#82b366;" edge="1" parent="1" source="repository" target="cache-manager">
          <mxGeometry width="50" height="50" relative="1" as="geometry">
            <mxPoint x="720" y="790" as="sourcePoint" />
            <mxPoint x="700" y="790" as="targetPoint" />
          </mxGeometry>
        </mxCell>
        
        <mxCell id="conn-26" value="" style="endArrow=classic;html=1;rounded=0;strokeWidth=2;strokeColor=#82b366;" edge="1" parent="1" source="prisma-orm" target="postgresql-db">
          <mxGeometry width="50" height="50" relative="1" as="geometry">
            <mxPoint x="320" y="790" as="sourcePoint" />
            <mxPoint x="170" y="760" as="targetPoint" />
          </mxGeometry>
        </mxCell>
        
        <mxCell id="conn-27" value="" style="endArrow=classic;html=1;rounded=0;strokeWidth=2;strokeColor=#82b366;" edge="1" parent="1" source="cache-manager" target="redis-db">
          <mxGeometry width="50" height="50" relative="1" as="geometry">
            <mxPoint x="520" y="790" as="sourcePoint" />
            <mxPoint x="170" y="860" as="targetPoint" />
          </mxGeometry>
        </mxCell>
        
        <!-- 외부 연동 -->
        <mxCell id="conn-28" value="" style="endArrow=classic;html=1;rounded=0;strokeWidth=2;strokeColor=#d32f2f;" edge="1" parent="1" source="ai-service" target="http-client-util">
          <mxGeometry width="50" height="50" relative="1" as="geometry">
            <mxPoint x="500" y="470" as="sourcePoint" />
            <mxPoint x="1070" y="790" as="targetPoint" />
          </mxGeometry>
        </mxCell>
        
        <mxCell id="conn-29" value="" style="endArrow=classic;html=1;rounded=0;strokeWidth=2;strokeColor=#d32f2f;" edge="1" parent="1" source="notion-service" target="http-client-util">
          <mxGeometry width="50" height="50" relative="1" as="geometry">
            <mxPoint x="700" y="470" as="sourcePoint" />
            <mxPoint x="1160" y="750" as="targetPoint" />
          </mxGeometry>
        </mxCell>
        
        <mxCell id="conn-30" value="" style="endArrow=classic;html=1;rounded=0;strokeWidth=2;strokeColor=#d32f2f;" edge="1" parent="1" source="jira-service" target="http-client-util">
          <mxGeometry width="50" height="50" relative="1" as="geometry">
            <mxPoint x="900" y="470" as="sourcePoint" />
            <mxPoint x="1250" y="750" as="targetPoint" />
          </mxGeometry>
        </mxCell>
        
        <mxCell id="conn-31" value="" style="endArrow=classic;html=1;rounded=0;strokeWidth=2;strokeColor=#d32f2f;" edge="1" parent="1" source="http-client-util" target="ai-server-ext">
          <mxGeometry width="50" height="50" relative="1" as="geometry">
            <mxPoint x="1160" y="750" as="sourcePoint" />
            <mxPoint x="1510" y="180" as="targetPoint" />
          </mxGeometry>
        </mxCell>
        
        <mxCell id="conn-32" value="" style="endArrow=classic;html=1;rounded=0;strokeWidth=2;strokeColor=#d32f2f;" edge="1" parent="1" source="http-client-util" target="external-apis">
          <mxGeometry width="50" height="50" relative="1" as="geometry">
            <mxPoint x="1250" y="750" as="sourcePoint" />
            <mxPoint x="1450" y="240" as="targetPoint" />
          </mxGeometry>
        </mxCell>
        
        <mxCell id="conn-33" value="" style="endArrow=classic;html=1;rounded=0;strokeWidth=2;strokeColor=#d32f2f;" edge="1" parent="1" source="oauth-manager" target="external-apis">
          <mxGeometry width="50" height="50" relative="1" as="geometry">
            <mxPoint x="1560" y="750" as="sourcePoint" />
            <mxPoint x="1525" y="280" as="targetPoint" />
          </mxGeometry>
        </mxCell>
        
        <!-- 모니터링 연결 -->
        <mxCell id="conn-34" value="" style="endArrow=none;dashed=1;html=1;rounded=0;strokeColor=#00796b;" edge="1" parent="1" source="express-server" target="health-check">
          <mxGeometry width="50" height="50" relative="1" as="geometry">
            <mxPoint x="410" y="200" as="sourcePoint" />
            <mxPoint x="410" y="910" as="targetPoint" />
          </mxGeometry>
        </mxCell>
        
        <mxCell id="conn-35" value="" style="endArrow=none;dashed=1;html=1;rounded=0;strokeColor=#00796b;" edge="1" parent="1" source="express-server" target="error-handler">
          <mxGeometry width="50" height="50" relative="1" as="geometry">
            <mxPoint x="450" y="200" as="sourcePoint" />
            <mxPoint x="610" y="910" as="targetPoint" />
          </mxGeometry>
        </mxCell>
        
        <mxCell id="conn-36" value="" style="endArrow=none;dashed=1;html=1;rounded=0;strokeColor=#00796b;" edge="1" parent="1" source="express-server" target="metrics">
          <mxGeometry width="50" height="50" relative="1" as="geometry">
            <mxPoint x="490" y="200" as="sourcePoint" />
            <mxPoint x="810" y="910" as="targetPoint" />
          </mxGeometry>
        </mxCell>
        
        <mxCell id="conn-37" value="" style="endArrow=none;dashed=1;html=1;rounded=0;strokeColor=#00796b;" edge="1" parent="1" source="error-handler" target="logger">
          <mxGeometry width="50" height="50" relative="1" as="geometry">
            <mxPoint x="700" y="950" as="sourcePoint" />
            <mxPoint x="920" y="630" as="targetPoint" />
          </mxGeometry>
        </mxCell>
        
        <mxCell id="conn-38" value="" style="endArrow=none;dashed=1;html=1;rounded=0;strokeColor=#00796b;" edge="1" parent="1" source="health-check" target="logger">
          <mxGeometry width="50" height="50" relative="1" as="geometry">
            <mxPoint x="500" y="950" as="sourcePoint" />
            <mxPoint x="920" y="670" as="targetPoint" />
          </mxGeometry>
        </mxCell>
        
        <mxCell id="conn-39" value="" style="endArrow=none;dashed=1;html=1;rounded=0;strokeColor=#00796b;" edge="1" parent="1" source="metrics" target="logger">
          <mxGeometry width="50" height="50" relative="1" as="geometry">
            <mxPoint x="810" y="910" as="sourcePoint" />
            <mxPoint x="1010" y="670" as="targetPoint" />
          </mxGeometry>
        </mxCell>
        
        <!-- 설계 원칙 박스 -->
        <mxCell id="design-principles" value="🏗️ 주요 설계 원칙&#xa;&#xa;1. 관심사 분리 (Separation of Concerns)&#xa;   • 레이어별 명확한 책임 분리&#xa;   • 단일 책임 원칙 준수&#xa;&#xa;2. 의존성 주입 (Dependency Injection)&#xa;   • 느슨한 결합 구현&#xa;   • 테스트 용이성 향상&#xa;&#xa;3. 에러 처리 (Error Handling)&#xa;   • 계층별 에러 처리&#xa;   • 사용자 친화적 에러 메시지&#xa;&#xa;4. 확장성 (Scalability)&#xa;   • 모듈화된 구조&#xa;   • 수평 확장 가능" style="rounded=1;whiteSpace=wrap;html=1;fillColor=#f0f0f0;strokeColor=#666666;fontSize=11;align=left;verticalAlign=top;" vertex="1" parent="1">
          <mxGeometry x="50" y="1050" width="400" height="220" as="geometry" />
        </mxCell>
        
        <!-- 데이터 흐름 설명 박스 -->
        <mxCell id="data-flow-desc" value="🔄 핵심 데이터 흐름&#xa;&#xa;1. 요청 수신&#xa;   Express → 미들웨어 → 라우터&#xa;&#xa;2. 컨트롤러&#xa;   비즈니스 로직 호출&#xa;&#xa;3. 서비스&#xa;   외부 API 연동 및 처리&#xa;&#xa;4. 데이터&#xa;   리포지토리 → Prisma → 데이터베이스&#xa;&#xa;5. 응답&#xa;   결과 반환 및 로깅" style="rounded=1;whiteSpace=wrap;html=1;fillColor=#e8f5e8;strokeColor=#388e3c;fontSize=11;align=left;verticalAlign=top;" vertex="1" parent="1">
          <mxGeometry x="500" y="1050" width="300" height="220" as="geometry" />
        </mxCell>
        
        <!-- 보안 고려사항 박스 -->
        <mxCell id="security-considerations" value="🔐 보안 고려사항&#xa;&#xa;1. 입력 검증&#xa;   • 모든 사용자 입력 검증&#xa;   • SQL 인젝션 방지&#xa;   • XSS 공격 차단&#xa;&#xa;2. 인증/인가&#xa;   • JWT 토큰 기반 인증&#xa;   • OAuth 2.0 외부 인증&#xa;   • 역할 기반 접근 제어&#xa;&#xa;3. 데이터 보호&#xa;   • 민감 데이터 암호화&#xa;   • HTTPS 강제 사용&#xa;   • 토큰 안전 저장&#xa;&#xa;4. 접근 제어&#xa;   • 멀티테넌트 데이터 격리&#xa;   • API 레이트 리미팅&#xa;   • CORS 정책 적용" style="rounded=1;whiteSpace=wrap;html=1;fillColor=#ffebee;strokeColor=#d32f2f;fontSize=11;align=left;verticalAlign=top;" vertex="1" parent="1">
          <mxGeometry x="850" y="1050" width="350" height="220" as="geometry" />
        </mxCell>
        
        <!-- 성능 최적화 박스 -->
        <mxCell id="performance-optimization" value="⚡ 성능 최적화&#xa;&#xa;1. 캐싱 전략&#xa;   • Redis 세션 캐시&#xa;   • API 응답 캐싱&#xa;   • 데이터베이스 쿼리 캐싱&#xa;&#xa;2. 데이터베이스 최적화&#xa;   • 인덱스 최적화&#xa;   • 쿼리 최적화&#xa;   • 연결 풀링&#xa;&#xa;3. 비동기 처리&#xa;   • 외부 API 병렬 호출&#xa;   • 백그라운드 작업 큐&#xa;   • 이벤트 기반 아키텍쳐&#xa;&#xa;4. 모니터링&#xa;   • 실시간 성능 메트릭&#xa;   • 로그 기반 디버깅&#xa;   • 알림 시스템" style="rounded=1;whiteSpace=wrap;html=1;fillColor=#fff3e0;strokeColor=#f57c00;fontSize=11;align=left;verticalAlign=top;" vertex="1" parent="1">
          <mxGeometry x="1250" y="1050" width="350" height="220" as="geometry" />
        </mxCell>
        
      </root>
    </mxGraphModel>
  </diagram>
</mxfile>